[Header]
FileType HTR
DataType HTRS
FileVersion 1
NumSegments 64
NumFrames 4
DataFrameRate 30
EulerRotationOrder ZYX
CalibrationUnits mm
RotationUnits Degrees
GlobalAxisofGravity Y
BoneLengthAxis Y
ScaleFactor 1.0
[SegmentNames&Hierarchy]
Hips	GLOBAL
Spine	Hips
Spine1	Spine
Spine2	Spine1
Neck	Spine2
Head	Neck
LeftEye	Head
RightEye	Head
LeftShoulder	Spine2
LeftArm	LeftShoulder
LeftForeArm	LeftArm
LeftHand	LeftForeArm
LeftHandThumb1	LeftHand
LeftHandThumb2	LeftHandThumb1
LeftHandThumb3	LeftHandThumb2
LeftHandThumb4	LeftHandThumb3
LeftHandIndex1	LeftHand
LeftHandIndex2	LeftHandIndex1
LeftHandIndex3	LeftHandIndex2
LeftHandIndex4	LeftHandIndex3
LeftHandMiddle1	LeftHand
LeftHandMiddle2	LeftHandMiddle1
LeftHandMiddle3	LeftHandMiddle2
LeftHandMiddle4	LeftHandMiddle3
LeftHandRing1	LeftHand
LeftHandRing2	LeftHandRing1
LeftHandRing3	LeftHandRing2
LeftHandRing4	LeftHandRing3
LeftHandPinky1	LeftHand
LeftHandPinky2	LeftHandPinky1
LeftHandPinky3	LeftHandPinky2
LeftHandPinky4	LeftHandPinky3
RightShoulder	Spine2
RightArm	RightShoulder
RightForeArm	RightArm
RightHand	RightForeArm
RightHandPinky1	RightHand
RightHandPinky2	RightHandPinky1
RightHandPinky3	RightHandPinky2
RightHandPinky4	RightHandPinky3
RightHandRing1	RightHand
RightHandRing2	RightHandRing1
RightHandRing3	RightHandRing2
RightHandRing4	RightHandRing3
RightHandMiddle1	RightHand
RightHandMiddle2	RightHandMiddle1
RightHandMiddle3	RightHandMiddle2
RightHandMiddle4	RightHandMiddle3
RightHandIndex1	RightHand
RightHandIndex2	RightHandIndex1
RightHandIndex3	RightHandIndex2
RightHandIndex4	RightHandIndex3
RightHandThumb1	RightHand
RightHandThumb2	RightHandThumb1
RightHandThumb3	RightHandThumb2
RightHandThumb4	RightHandThumb3
LeftUpLeg	Hips
LeftLeg	LeftUpLeg
LeftFoot	LeftLeg
LeftToeBase	LeftFoot
RightUpLeg	Hips
RightLeg	RightUpLeg
RightFoot	RightLeg
RightToeBase	RightFoot
[BasePosition]
Hips	0	0	0	0	0	0	1
Spine	0	0	0	0	0	0	1
Spine1	0	0	0	0	0	0	1
Spine2	0	0	0	0	0	0	1
Neck	0	0	0	0	0	0	1
Head	0	0	0	0	0	0	1
LeftEye	0	0	0	0	0	0	1
RightEye	0	0	0	0	0	0	1
LeftShoulder	0	0	0	0	0	0	1
LeftArm	0	0	0	0	0	0	1
LeftForeArm	0	0	0	0	0	0	1
LeftHand	0	0	0	0	0	0	1
LeftHandThumb1	0	0	0	0	0	0	1
LeftHandThumb2	0	0	0	0	0	0	1
LeftHandThumb3	0	0	0	0	0	0	1
LeftHandThumb4	0	0	0	0	0	0	1
LeftHandIndex1	0	0	0	0	0	0	1
LeftHandIndex2	0	0	0	0	0	0	1
LeftHandIndex3	0	0	0	0	0	0	1
LeftHandIndex4	0	0	0	0	0	0	1
LeftHandMiddle1	0	0	0	0	0	0	1
LeftHandMiddle2	0	0	0	0	0	0	1
LeftHandMiddle3	0	0	0	0	0	0	1
LeftHandMiddle4	0	0	0	0	0	0	1
LeftHandRing1	0	0	0	0	0	0	1
LeftHandRing2	0	0	0	0	0	0	1
LeftHandRing3	0	0	0	0	0	0	1
LeftHandRing4	0	0	0	0	0	0	1
LeftHandPinky1	0	0	0	0	0	0	1
LeftHandPinky2	0	0	0	0	0	0	1
LeftHandPinky3	0	0	0	0	0	0	1
LeftHandPinky4	0	0	0	0	0	0	1
RightShoulder	0	0	0	0	0	0	1
RightArm	0	0	0	0	0	0	1
RightForeArm	0	0	0	0	0	0	1
RightHand	0	0	0	0	0	0	1
RightHandPinky1	0	0	0	0	0	0	1
RightHandPinky2	0	0	0	0	0	0	1
RightHandPinky3	0	0	0	0	0	0	1
RightHandPinky4	0	0	0	0	0	0	1
RightHandRing1	0	0	0	0	0	0	1
RightHandRing2	0	0	0	0	0	0	1
RightHandRing3	0	0	0	0	0	0	1
RightHandRing4	0	0	0	0	0	0	1
RightHandMiddle1	0	0	0	0	0	0	1
RightHandMiddle2	0	0	0	0	0	0	1
RightHandMiddle3	0	0	0	0	0	0	1
RightHandMiddle4	0	0	0	0	0	0	1
RightHandIndex1	0	0	0	0	0	0	1
RightHandIndex2	0	0	0	0	0	0	1
RightHandIndex3	0	0	0	0	0	0	1
RightHandIndex4	0	0	0	0	0	0	1
RightHandThumb1	0	0	0	0	0	0	1
RightHandThumb2	0	0	0	0	0	0	1
RightHandThumb3	0	0	0	0	0	0	1
RightHandThumb4	0	0	0	0	0	0	1
LeftUpLeg	0	0	0	0	0	0	1
LeftLeg	0	0	0	0	0	0	1
LeftFoot	0	0	0	0	0	0	1
LeftToeBase	0	0	0	0	0	0	1
RightUpLeg	0	0	0	0	0	0	1
RightLeg	0	0	0	0	0	0	1
RightFoot	0	0	0	0	0	0	1
RightToeBase	0	0	0	0	0	0	1
[Hips]
107	-7.890267849	1012.650024	-2.671267986	6.9755826	-3.421041012	-8.856016159	1.0
108	-9.229070663	1012.97113	-2.587182522	7.208177567	-2.95762825	-9.188907623	1.0
109	-10.24276543	1013.100891	-1.88488245	7.261837482	-2.648141384	-9.425138474	1.0
110	-10.90415001	1012.679688	-0.8415436745	7.180358887	-2.46971488	-9.535705566	1.0
[Spine]
107	0	101.8159943	1.315000057	5.323410034	1.654807568	2.110606909	1.0
108	0	101.8159943	1.315000057	5.328078747	1.656162024	1.98854363	1.0
109	0	101.8159943	1.315000057	5.26618576	1.645115614	1.921367764	1.0
110	0	101.8159943	1.315000057	5.202356339	1.648973107	1.893716574	1.0
[Spine1]
107	0	100.8349991	-10.00800037	3.175671101	0.5933955312	0.4665492177	1.0
108	0	100.8349991	-10.00800037	3.191382408	0.5898561478	0.33911708	1.0
109	0	100.8349991	-10.00800037	3.143134594	0.5698173642	0.2558607757	1.0
110	0	100.8349991	-10.00800037	3.0803442	0.5750618577	0.2084160596	1.0
[Spine2]
107	0	91	-13.73399925	3.155188799	0.6336262226	0.4819918573	1.0
108	0	91	-13.73399925	3.171519995	0.6357859969	0.3537969291	1.0
109	0	91	-13.73399925	3.123572826	0.6180503368	0.2699588537	1.0
110	0	91	-13.73399925	3.060626984	0.6225095391	0.2222867608	1.0
[Neck]
107	0	166.7169952	-25.16200066	6.804920673	1.03701508	-4.411488533	1.0
108	0	166.7169952	-25.16200066	6.756475925	0.975404501	-4.281160831	1.0
109	0	166.7169952	-25.16200066	6.721196175	0.936994195	-4.178300381	1.0
110	0	166.7169952	-25.16200066	6.639879704	0.9748046994	-4.202194214	1.0
[Head]
107	0	96.17900085	16.84999847	-23.76995468	5.852436543	-3.198641062	1.0
108	0	96.17900085	16.84999847	-21.71029854	6.298980713	-1.298394322	1.0
109	0	96.17900085	16.84999847	-20.72748375	6.298016548	-0.4726957679	1.0
110	0	96.17900085	16.84999847	-20.87581253	6.381445408	-0.4058659077	1.0
[LeftEye]
107	30.6760006	64.09500122	92.83599854	0	0	0	1.0
108	30.6760006	64.09500122	92.83599854	0	0	0	1.0
109	30.6760006	64.09500122	92.83599854	0	0	0	1.0
110	30.6760006	64.09500122	92.83599854	0	0	0	1.0
[RightEye]
107	-30.6760006	64.09500122	92.83499908	0	0	0	1.0
108	-30.6760006	64.09500122	92.83499908	0	0	0	1.0
109	-30.6760006	64.09500122	92.83499908	0	0	0	1.0
110	-30.6760006	64.09500122	92.83499908	0	0	0	1.0
[LeftShoulder]
107	45.70400238	109.4599991	-26.28000069	5.429607868	-16.902174	-16.17751503	1.0
108	45.70400238	109.4599991	-26.28000069	5.467606068	-16.8764801	-16.43866539	1.0
109	45.70400238	109.4599991	-26.28000069	5.43427372	-16.74685478	-16.45307541	1.0
110	45.70400238	109.4599991	-26.28000069	5.344134331	-16.54239082	-16.25408363	1.0
[LeftArm]
107	105.923996	-5.24600029	-22.32099915	16.34247398	-13.46280479	-57.89673996	1.0
108	105.923996	-5.24600029	-22.32099915	15.54061985	-12.88237286	-57.19512177	1.0
109	105.923996	-5.24600029	-22.32099915	15.35669899	-12.42818165	-57.16312027	1.0
110	105.923996	-5.24600029	-22.32099915	15.79591465	-12.36299515	-57.69987869	1.0
[LeftForeArm]
107	278.414978	-0.0009999999311	0	-5.633535238e-07	-4.417624474	-0.0002007021103	1.0
108	278.414978	-0.0009999999311	0	2.647504687e-07	-6.609043121	-0.0001974981278	1.0
109	278.414978	-0.0009999999311	0	-5.20649337e-06	-7.931600571	-0.0002086270397	1.0
110	278.414978	-0.0009999999311	0	-3.168548801e-06	-8.265408516	-0.0002181701275	1.0
[LeftHand]
107	283.2879944	0	0	-32.90187836	-8.401503563	-0.03518142179	1.0
108	283.2879944	0	0	-37.74909973	-10.07944012	1.078638077	1.0
109	283.2879944	0	0	-39.24405289	-9.316667557	1.62812376	1.0
110	283.2879944	0	0	-38.05148315	-7.050273418	2.284740448	1.0
[LeftHandThumb1]
107	24.6609993	-15.75	26.8239994	-10.58955097	-0.6517664194	9.755784035	1.0
108	24.6609993	-15.75	26.8239994	-9.762699127	-0.4743415713	9.292965889	1.0
109	24.6609993	-15.75	26.8239994	-8.395638466	-0.1920884103	8.521247864	1.0
110	24.6609993	-15.75	26.8239994	-7.605893135	-0.08094125241	8.032859802	1.0
[LeftHandThumb2]
107	32.29800034	-18.64699936	18.64699936	19.57581329	22.97891045	15.57193565	1.0
108	32.29800034	-18.64699936	18.64699936	19.6050415	22.49123764	16.14123917	1.0
109	32.29800034	-18.64699936	18.64699936	19.64152718	21.91592407	16.85042	1.0
110	32.29800034	-18.64699936	18.64699936	19.65698624	21.55737877	17.16598701	1.0
[LeftHandThumb3]
107	26.52600098	-15.31499958	15.31499958	-11.19653988	2.299276352	9.117202759	1.0
108	26.52600098	-15.31499958	15.31499958	-11.33899403	2.530033112	9.040095329	1.0
109	26.52600098	-15.31499958	15.31499958	-11.55828762	2.864485502	9.01051712	1.0
110	26.52600098	-15.31499958	15.31499958	-11.66741848	3.022887468	9.011131287	1.0
[LeftHandThumb4]
107	19.54599953	-11.28499985	11.28499985	0	0	0	1.0
108	19.54599953	-11.28499985	11.28499985	0	0	0	1.0
109	19.54599953	-11.28499985	11.28499985	0	0	0	1.0
110	19.54599953	-11.28499985	11.28499985	0	0	0	1.0
[LeftHandIndex1]
107	91.09299469	-5.170999527	22.60099792	-0.01431454066	-0.8804623485	-9.945106506	1.0
108	91.09299469	-5.170999527	22.60099792	-0.02251992188	-0.8818612099	-10.05311203	1.0
109	91.09299469	-5.170999527	22.60099792	-0.02805610746	-0.8385576606	-10.24116516	1.0
110	91.09299469	-5.170999527	22.60099792	-0.03867973387	-0.8094262481	-10.45396233	1.0
[LeftHandIndex2]
107	36.76399994	0	0	-0.2607501149	1.726047873	-17.17993355	1.0
108	36.76399994	0	0	-0.259110868	1.720731616	-17.12537766	1.0
109	36.76399994	0	0	-0.2581591904	1.717644453	-17.09369469	1.0
110	36.76399994	0	0	-0.2577088475	1.716181517	-17.07866096	1.0
[LeftHandIndex3]
107	28.83100128	0	0	-0.05462032184	0.7971894145	-7.838947773	1.0
108	28.83100128	0	0	-0.05386115983	0.7916711569	-7.784300804	1.0
109	28.83100128	0	0	-0.05342727154	0.7884934545	-7.752851486	1.0
110	28.83100128	0	0	-0.05322064087	0.7869722247	-7.737794399	1.0
[LeftHandIndex4]
107	23.92700005	0	0	0	0	0	1.0
108	23.92700005	0	0	0	0	0	1.0
109	23.92700005	0	0	0	0	0	1.0
110	23.92700005	0	0	0	0	0	1.0
[LeftHandMiddle1]
107	95.33399963	0	0	-1.017558336	2.701803923	-18.91387367	1.0
108	95.33399963	0	0	-0.9847207665	2.713049173	-18.45607567	1.0
109	95.33399963	0	0	-0.9680681229	2.77429986	-18.22071648	1.0
110	95.33399963	0	0	-0.9656063914	2.820919514	-18.18490028	1.0
[LeftHandMiddle2]
107	36.98199844	0	0	-0.2408145368	1.660219073	-16.50522995	1.0
108	36.98199844	0	0	-0.2390328795	1.654206395	-16.44368362	1.0
109	36.98199844	0	0	-0.2381599098	1.651242018	-16.41339874	1.0
110	36.98199844	0	0	-0.2384505421	1.6522156	-16.42334366	1.0
[LeftHandMiddle3]
107	29.50900078	0	0	-0.2709007263	1.758532405	-17.51384544	1.0
108	29.50900078	0	0	-0.2690121233	1.752528429	-17.45208931	1.0
109	29.50900078	0	0	-0.268068552	1.749526858	-17.42123222	1.0
110	29.50900078	0	0	-0.2683596313	1.750452638	-17.43078613	1.0
[LeftHandMiddle4]
107	28.3390007	0	0	0	0	0	1.0
108	28.3390007	0	0	0	0	0	1.0
109	28.3390007	0	0	0	0	0	1.0
110	28.3390007	0	0	0	0	0	1.0
[LeftHandRing1]
107	91.04499817	-0.4390000105	-18.65100098	-1.400830269	3.586036205	-23.95491219	1.0
108	91.04499817	-0.4390000105	-18.65100098	-1.42017436	3.599113464	-24.19831467	1.0
109	91.04499817	-0.4390000105	-18.65100098	-1.439012289	3.611858368	-24.43436432	1.0
110	91.04499817	-0.4390000105	-18.65100098	-1.457227588	3.624162436	-24.6617527	1.0
[LeftHandRing2]
107	31.54000092	0	0	-0.5465989709	2.467096567	-24.98124886	1.0
108	31.54000092	0	0	-0.5548303127	2.484675646	-25.17179871	1.0
109	31.54000092	0	0	-0.5622662902	2.500420332	-25.34277725	1.0
110	31.54000092	0	0	-0.5688798428	2.514318228	-25.49391174	1.0
[LeftHandRing3]
107	29.37700081	0	0	-0.4233942926	2.183484793	-21.94535255	1.0
108	29.37700081	0	0	-0.4307234883	2.201574564	-22.13690948	1.0
109	29.37700081	0	0	-0.4373479486	2.217778683	-22.30874443	1.0
110	29.37700081	0	0	-0.4432447851	2.232084751	-22.46063042	1.0
[LeftHandRing4]
107	26.47500038	0	0	0	0	0	1.0
108	26.47500038	0	0	0	0	0	1.0
109	26.47500038	0	0	0	0	0	1.0
110	26.47500038	0	0	0	0	0	1.0
[LeftHandPinky1]
107	80.77799988	-4.887000084	-38.06099701	-3.919302464	4.499553204	-36.92690277	1.0
108	80.77799988	-4.887000084	-38.06099701	-4.046624184	4.373894215	-37.03050613	1.0
109	80.77799988	-4.887000084	-38.06099701	-4.175472736	4.276520252	-37.32085037	1.0
110	80.77799988	-4.887000084	-38.06099701	-4.353022575	4.151129246	-37.77348709	1.0
[LeftHandPinky2]
107	36	0	0	-0.4398060739	2.22375226	-22.37215614	1.0
108	36	0	0	-0.43979159	2.223716736	-22.3717823	1.0
109	36	0	0	-0.442849189	2.231124163	-22.45041466	1.0
110	36	0	0	-0.4515390098	2.252022505	-22.67259216	1.0
[LeftHandPinky3]
107	21.14200211	0	0	-0.4055312574	2.138648987	-21.47163773	1.0
108	21.14200211	0	0	-0.4055171013	2.138612986	-21.47127151	1.0
109	21.14200211	0	0	-0.4084553421	2.146065474	-21.54989433	1.0
110	21.14200211	0	0	-0.4168183208	2.167098522	-21.77204704	1.0
[LeftHandPinky4]
107	19.75699997	0	0	0	0	0	1.0
108	19.75699997	0	0	0	0	0	1.0
109	19.75699997	0	0	0	0	0	1.0
110	19.75699997	0	0	0	0	0	1.0
[RightShoulder]
107	-45.70000076	109.4620056	-26.28000069	5.979882717	18.59092331	13.27249146	1.0
108	-45.70000076	109.4620056	-26.28000069	5.805499077	17.90211678	13.26548672	1.0
109	-45.70000076	109.4620056	-26.28000069	5.782861233	17.75889015	13.36858368	1.0
110	-45.70000076	109.4620056	-26.28000069	5.863004208	18.01760674	13.48083591	1.0
[RightArm]
107	-105.9280014	-5.248000145	-22.32099915	33.30286407	16.69823456	64.28235626	1.0
108	-105.9280014	-5.248000145	-22.32099915	32.87490082	16.10310745	64.8484726	1.0
109	-105.9280014	-5.248000145	-22.32099915	33.31899261	15.41821194	64.9486618	1.0
110	-105.9280014	-5.248000145	-22.32099915	34.08885574	14.68969536	64.6061554	1.0
[RightForeArm]
107	-278.414978	0	0	1.603409828e-06	16.75411797	-3.279022621e-06	1.0
108	-278.414978	0	0	-1.185074439e-06	17.97767639	-9.360002878e-06	1.0
109	-278.414978	0	0	5.468839845e-06	18.2653904	7.866675332e-06	1.0
110	-278.414978	0	0	1.029590931e-05	18.05390358	1.34918273e-05	1.0
[RightHand]
107	-283.2879944	0	0.0009999999311	-20.05868912	7.940955162	-0.01287047658	1.0
108	-283.2879944	0	0.0009999999311	-24.80660439	9.598622322	-0.03095037676	1.0
109	-283.2879944	0	0.0009999999311	-24.48913956	9.396172523	-0.930303812	1.0
110	-283.2879944	0	0.0009999999311	-23.25528336	8.978728294	-2.701365232	1.0
[RightHandPinky1]
107	-80.76699829	-4.885000229	-38.06000137	-5.252696991	-3.017867804	67.16444397	1.0
108	-80.76699829	-4.885000229	-38.06000137	-5.590817928	-2.741168261	70.60452271	1.0
109	-80.76699829	-4.885000229	-38.06000137	-5.845676899	-2.502520323	73.18997955	1.0
110	-80.76699829	-4.885000229	-38.06000137	-5.804246902	-2.540730476	72.76685333	1.0
[RightHandPinky2]
107	-36	0	0.0009999999311	-0.5120167136	-2.118340731	27.19298553	1.0
108	-36	0	0.0009999999311	-0.5028211474	-2.100346565	26.94329643	1.0
109	-36	0	0.0009999999311	-0.4967936873	-2.088442564	26.77845573	1.0
110	-36	0	0.0009999999311	-0.4811044633	-2.057047367	26.34450531	1.0
[RightHandPinky3]
107	-21.14200211	0	0	-0.4696837366	-2.033833981	26.00510788	1.0
108	-21.14200211	0	0	-0.4595947564	-2.013020992	25.71913719	1.0
109	-21.14200211	0	0	-0.4528231919	-1.998915434	25.52569962	1.0
110	-21.14200211	0	0	-0.4380401969	-1.967674494	25.09863281	1.0
[RightHandPinky4]
107	-19.75699997	0	0	0	0	0	1.0
108	-19.75699997	0	0	0	0	0	1.0
109	-19.75699997	0	0	0	0	0	1.0
110	-19.75699997	0	0	0	0	0	1.0
[RightHandRing1]
107	-91.03599548	-0.4390000105	-18.65100098	-3.85176897	-2.285918951	55.44724274	1.0
108	-91.03599548	-0.4390000105	-18.65100098	-4.005417347	-2.659339666	57.15252304	1.0
109	-91.03599548	-0.4390000105	-18.65100098	-4.127449036	-2.932528019	58.50347519	1.0
110	-91.03599548	-0.4390000105	-18.65100098	-4.102838039	-2.991853476	58.23061752	1.0
[RightHandRing2]
107	-31.54000092	0	0	-1.932335615	-3.764573097	54.33014679	1.0
108	-31.54000092	0	0	-1.977757931	-3.79669857	55.01890945	1.0
109	-31.54000092	0	0	-2.021852255	-3.827100515	55.68225479	1.0
110	-31.54000092	0	0	-1.987541795	-3.80351162	55.16662216	1.0
[RightHandRing3]
107	-29.37700081	0	0	-1.73350656	-3.61388731	51.24083328	1.0
108	-29.37700081	0	0	-1.777485609	-3.648692131	51.93514252	1.0
109	-29.37700081	0	0	-1.820150018	-3.681631804	52.6026535	1.0
110	-29.37700081	0	0	-1.787242532	-3.65628171	52.08819199	1.0
[RightHandRing4]
107	-26.47500038	0	0	0	0	0	1.0
108	-26.47500038	0	0	0	0	0	1.0
109	-26.47500038	0	0	0	0	0	1.0
110	-26.47500038	0	0	0	0	0	1.0
[RightHandMiddle1]
107	-95.32500458	0	0	-2.520508289	-5.370401859	40.10800171	1.0
108	-95.32500458	0	0	-2.670984268	-5.122623444	41.90845108	1.0
109	-95.32500458	0	0	-2.800898075	-4.841431141	43.44540405	1.0
110	-95.32500458	0	0	-2.80728364	-4.7452631	43.52047729	1.0
[RightHandMiddle2]
107	-36.98199844	0	0	-0.2777241468	-1.581044555	19.92446709	1.0
108	-36.98199844	0	0	-0.286719352	-1.605633497	20.24811172	1.0
109	-36.98199844	0	0	-0.2930564582	-1.622726798	20.47328758	1.0
110	-36.98199844	0	0	-0.2924994826	-1.621211052	20.4533596	1.0
[RightHandMiddle3]
107	-29.50900078	0	0	-0.3063916862	-1.659988642	20.93893623	1.0
108	-29.50900078	0	0	-0.3157661557	-1.684271097	21.26052094	1.0
109	-29.50900078	0	0	-0.3223591149	-1.701113462	21.48399734	1.0
110	-29.50900078	0	0	-0.3217536211	-1.699587345	21.46365547	1.0
[RightHandMiddle4]
107	-28.3390007	0	0.0009999999311	0	0	0	1.0
108	-28.3390007	0	0.0009999999311	0	0	0	1.0
109	-28.3390007	0	0.0009999999311	0	0	0	1.0
110	-28.3390007	0	0.0009999999311	0	0	0	1.0
[RightHandIndex1]
107	-91.08300018	-5.167999744	22.60099792	0.2135029733	-4.234507084	21.09344482	1.0
108	-91.08300018	-5.167999744	22.60099792	0.0526401028	-4.396481514	23.53057289	1.0
109	-91.08300018	-5.167999744	22.60099792	-0.1013448834	-4.416675091	25.5252285	1.0
110	-91.08300018	-5.167999744	22.60099792	-0.1397522241	-4.344388008	25.91004753	1.0
[RightHandIndex2]
107	-36.76399994	0	0	-0.1626493484	-1.217711926	15.21504211	1.0
108	-36.76399994	0	0	-0.1683514416	-1.238492489	15.4810915	1.0
109	-36.76399994	0	0	-0.174011752	-1.258768082	15.74119377	1.0
110	-36.76399994	0	0	-0.176500842	-1.26756072	15.85407734	1.0
[RightHandIndex3]
107	-28.83100128	0	0	-0.02427290194	-0.4739348888	5.861824989	1.0
108	-28.83100128	0	0	-0.02651649155	-0.4953553081	6.127801895	1.0
109	-28.83100128	0	0	-0.02881285734	-0.5162835121	6.38779211	1.0
110	-28.83100128	0	0	-0.02983657457	-0.5253592134	6.500644207	1.0
[RightHandIndex4]
107	-23.92700005	0	0	0	0	0	1.0
108	-23.92700005	0	0	0	0	0	1.0
109	-23.92700005	0	0	0	0	0	1.0
110	-23.92700005	0	0	0	0	0	1.0
[RightHandThumb1]
107	-24.64799881	-15.72700024	26.82600021	-3.173322916	3.66416955	2.392843723	1.0
108	-24.64799881	-15.72700024	26.82600021	-3.323144913	4.151331902	2.532945395	1.0
109	-24.64799881	-15.72700024	26.82600021	-3.47071147	4.641906261	2.620576382	1.0
110	-24.64799881	-15.72700024	26.82600021	-3.51691246	4.833810329	2.462995529	1.0
[RightHandThumb2]
107	-32.29800034	-18.64699936	18.64699936	23.88497734	-25.21414185	-25.10737038	1.0
108	-32.29800034	-18.64699936	18.64699936	24.85688972	-27.20735359	-25.87716675	1.0
109	-32.29800034	-18.64699936	18.64699936	25.51383781	-28.6416626	-26.42169762	1.0
110	-32.29800034	-18.64699936	18.64699936	25.6524601	-28.93445396	-26.53445435	1.0
[RightHandThumb3]
107	-26.52600098	-15.31399918	15.31399918	-15.95472908	-3.595559835	-10.8598299	1.0
108	-26.52600098	-15.31399918	15.31399918	-15.69813538	-2.703071117	-11.21943474	1.0
109	-26.52600098	-15.31399918	15.31399918	-15.147542	-1.846533775	-11.5786314	1.0
110	-26.52600098	-15.31399918	15.31399918	-15.04531002	-1.669685841	-11.65472317	1.0
[RightHandThumb4]
107	-19.54599953	-11.28499985	11.28499985	0	0	0	1.0
108	-19.54599953	-11.28499985	11.28499985	0	0	0	1.0
109	-19.54599953	-11.28499985	11.28499985	0	0	0	1.0
110	-19.54599953	-11.28499985	11.28499985	0	0	0	1.0
[LeftUpLeg]
107	82.07800293	-67.51699829	-15.99599934	-28.92197609	18.11446762	10.60542774	1.0
108	82.07800293	-67.51699829	-15.99599934	-29.2938385	18.15501404	10.88361073	1.0
109	82.07800293	-67.51699829	-15.99599934	-29.37100792	18.23317528	11.13418293	1.0
110	82.07800293	-67.51699829	-15.99599934	-29.31748772	18.28279495	11.29232788	1.0
[LeftLeg]
107	0	-443.7049866	2.845999956	26.84556198	-1.481084585	3.499446869	1.0
108	0	-443.7049866	2.845999956	26.73998451	-1.868955851	3.358671188	1.0
109	0	-443.7049866	2.845999956	26.66573524	-2.167935371	3.217967272	1.0
110	0	-443.7049866	2.845999956	26.78196144	-2.375520706	3.130754232	1.0
[LeftFoot]
107	0	-444.2789917	-29.8219986	-1.108058333	0.476464361	-6.754926682	1.0
108	0	-444.2789917	-29.8219986	-0.7795550227	0.5062708855	-6.92327404	1.0
109	0	-444.2789917	-29.8219986	-0.7417266369	0.5127478242	-7.069877148	1.0
110	0	-444.2789917	-29.8219986	-1.022114158	0.4914396107	-7.179388046	1.0
[LeftToeBase]
107	0	-87.28699493	107.1060028	-4.058830261	-7.199868151e-07	1.824376227e-06	1.0
108	0	-87.28699493	107.1060028	-4.056546688	-2.649324415e-06	-2.097651986e-06	1.0
109	0	-87.28699493	107.1060028	-4.058229923	4.758190997e-08	2.372212066e-06	1.0
110	0	-87.28699493	107.1060028	-4.061970234	4.120437552e-06	9.279999631e-07	1.0
[RightUpLeg]
107	-82.07800293	-67.51699829	-15.99599934	-17.03264809	-6.363951683	12.02728748	1.0
108	-82.07800293	-67.51699829	-15.99599934	-17.03351021	-6.243600368	12.53375053	1.0
109	-82.07800293	-67.51699829	-15.99599934	-16.93345642	-6.252752304	12.82269573	1.0
110	-82.07800293	-67.51699829	-15.99599934	-16.90492249	-6.285475731	12.96654034	1.0
[RightLeg]
107	0	-443.7049866	2.861999989	18.30337143	-8.464076996	-6.625245094	1.0
108	0	-443.7049866	2.861999989	17.78141785	-8.506015778	-6.639886856	1.0
109	0	-443.7049866	2.861999989	17.53244591	-8.541584969	-6.584990501	1.0
110	0	-443.7049866	2.861999989	17.76098442	-8.508038521	-6.636640072	1.0
[RightFoot]
107	0	-444.2770081	-29.83799934	-6.809022427	-5.889457703	2.822272062	1.0
108	0	-444.2770081	-29.83799934	-6.417463779	-6.32072258	2.864726067	1.0
109	0	-444.2770081	-29.83799934	-6.180434227	-6.50378418	3.030849457	1.0
110	0	-444.2770081	-29.83799934	-6.293080807	-6.615422249	3.203705549	1.0
[RightToeBase]
107	0	-87.28699493	107.1060028	-6.83194685	1.577141461e-06	-5.58231136e-07	1.0
108	0	-87.28699493	107.1060028	-6.82450819	4.57533497e-06	-1.012952112e-06	1.0
109	0	-87.28699493	107.1060028	-6.857684135	9.209607924e-06	9.220790531e-08	1.0
110	0	-87.28699493	107.1060028	-6.904752731	-2.955526043e-06	1.998359721e-06	1.0
[EndOfFile]
